# xmcd
#
# Track frame offsets: 
#        150
#        20352
#        39057
#        67540
#        82762
#        94837
#        114982
#        132272
#        154972
#        173545
#        191020
#        218145
#        236300
#        261127
#        276760
#        302650
#        315470
#
# Disc length: 4446 seconds
#
# Revision: 5
# Processed by: cddbd v1.5.2PL0 Copyright (c) Steve Scherf et al.
# Submitted via: ExactAudioCopy v0.99pb5
#
DISCID=c9115c11
DTITLE=Various Artist - A Tasty Sound Collection - Cocktails and Guitars
DYEAR=2010
DGENRE=Guitar
TTITLE0=Louie Shelton - Fly Like An Eagle
TTITLE1=Doug MacLeod - Come To Find
TTITLE2=Telecats - Nelly
TTITLE3=Hans Theessink - 29 Ways
TTITLE4=Sara K. - Oh Well
TTITLE5=Livingston Taylor - Isn't She Lovely
TTITLE6=Joyce Cooling - Sleight Of Hand
TTITLE7=Ray Wylie Hubbard - Last Train To Amsterdam
TTITLE8=Erlend Krauser - Do It Again
TTITLE9=Alison Krauss and Union Station - It Doesn't Matter
TTITLE10=Stytz Syndikate - Traces Of Lovers
TTITLE11=Hank Shizzoe and Loose Gravel - The Life Of A Thief
TTITLE12=Karl Ratzer - Finger Snappin' Good
TTITLE13=Connie Kaldor - If I Was To Tell You
TTITLE14=Blues Company - Cold Rain
TTITLE15=Carrie Newcomer - The Length Of My Arms
TTITLE16=Robert Lucas - Big Man Mambo
EXTD=
EXTT0=
EXTT1=
EXTT2=
EXTT3=
EXTT4=
EXTT5=
EXTT6=
EXTT7=
EXTT8=
EXTT9=
EXTT10=
EXTT11=
EXTT12=
EXTT13=
EXTT14=
EXTT15=
EXTT16=
PLAYORDER=
